<svg width="175" height="165" viewBox="0 0 175 165" fill="none" xmlns="http://www.w3.org/2000/svg">
<path d="M175 2.84483H0V116.638H175V2.84483Z" fill="#AFB6BB"/>
<path d="M96.5517 139.604V148.309C96.5517 149.669 95.378 150.776 93.9327 150.776H81.0672C79.622 150.776 78.4483 149.669 78.4483 148.307V139.601C56.1177 140.603 39.2241 145.22 39.2241 150.776C39.2241 157.06 60.8366 162.155 87.5 162.155C114.163 162.155 135.776 157.06 135.776 150.776C135.776 145.22 118.882 140.603 96.5517 139.604Z" fill="#38454F"/>
<path d="M93.9327 150.776H81.0672C79.6219 150.776 78.4482 149.669 78.4482 148.307V116.638H96.5517V148.307C96.5517 149.669 95.378 150.776 93.9327 150.776Z" fill="#546A79"/>
<path d="M175 14.2241H0V105.259H175V14.2241Z" fill="#546A79"/>
<path d="M12.069 39.8276C12.8414 39.8276 13.6138 39.5488 14.2021 38.994L26.2711 27.6147C27.4509 26.5024 27.4509 24.7045 26.2711 23.5921C25.0914 22.4798 23.1845 22.4798 22.0047 23.5921L9.93577 34.9715C8.75603 36.0838 8.75603 37.8817 9.93577 38.994C10.5241 39.5488 11.2965 39.8276 12.069 39.8276Z" fill="#839CAA"/>
<path d="M12.069 54.0517C12.8414 54.0517 13.6138 53.7729 14.2021 53.2182L20.2366 47.5285C21.4164 46.4162 21.4164 44.6183 20.2366 43.5059C19.0569 42.3936 17.15 42.3936 15.9703 43.5059L9.93577 49.1956C8.75603 50.3079 8.75603 52.1059 9.93577 53.2182C10.5241 53.7729 11.2965 54.0517 12.069 54.0517Z" fill="#839CAA"/>
<path d="M21.9957 37.8078C21.4526 38.3483 21.1207 39.0879 21.1207 39.8276C21.1207 40.5957 21.4526 41.3069 21.9957 41.8474C22.5689 42.3595 23.3233 42.6724 24.1379 42.6724C24.9224 42.6724 25.7069 42.3595 26.2801 41.8474C26.8233 41.3069 27.1551 40.5672 27.1551 39.8276C27.1551 39.0879 26.8233 38.3483 26.2801 37.8078C25.1336 36.7552 23.112 36.7552 21.9957 37.8078Z" fill="#839CAA"/>
<path d="M28.0392 36.1492C28.6276 36.704 29.4 36.9828 30.1724 36.9828C30.9448 36.9828 31.7172 36.704 32.3056 36.1492L41.3573 27.6147C42.5371 26.5024 42.5371 24.7045 41.3573 23.5921C40.1776 22.4798 38.2707 22.4798 37.091 23.5921L28.0392 32.1266C26.8595 33.239 26.8595 35.0369 28.0392 36.1492Z" fill="#839CAA"/>
<path d="M37.0909 37.8163L9.93577 63.4197C8.75603 64.5321 8.75603 66.33 9.93577 67.4423C10.5241 67.9971 11.2965 68.2759 12.069 68.2759C12.8414 68.2759 13.6138 67.9971 14.2021 67.4423L41.3573 41.8389C42.5371 40.7265 42.5371 38.9286 41.3573 37.8163C40.1776 36.704 38.2707 36.704 37.0909 37.8163Z" fill="#839CAA"/>
<path d="M43.1164 32.1181C42.5733 32.6586 42.2414 33.3983 42.2414 34.1379C42.2414 34.8776 42.5733 35.6172 43.1164 36.1578C43.6897 36.6698 44.4742 36.9828 45.2586 36.9828C46.0431 36.9828 46.8276 36.6698 47.4009 36.1578C47.944 35.6172 48.2759 34.8776 48.2759 34.1379C48.2759 33.3698 47.944 32.6586 47.4009 32.1181C46.2845 31.0655 44.2328 31.0655 43.1164 32.1181Z" fill="#839CAA"/>
<path d="M56.4435 23.5921C55.2638 22.4798 53.3569 22.4798 52.1771 23.5921L49.1599 26.437C47.9802 27.5493 47.9802 29.3472 49.1599 30.4596C49.7483 31.0143 50.5207 31.2931 51.2931 31.2931C52.0655 31.2931 52.8379 31.0143 53.4263 30.4596L56.4435 27.6147C57.6233 26.5024 57.6233 24.7045 56.4435 23.5921Z" fill="#839CAA"/>
</svg>
