<svg width="185" height="161" viewBox="0 0 185 161" fill="none" xmlns="http://www.w3.org/2000/svg">
<g clip-path="url(#clip0_8_165)">
<path d="M180.823 15.5806H107.121C104.734 15.5806 102.645 15.5806 100.258 18.6968L96.379 23.371H9.25C4.17742 23.371 0 27.5258 0 31.9403V133.994C0 138.408 4.17742 142.823 9.25 142.823H175.75C180.823 142.823 185 138.408 185 133.994V55.0516V32.2V18.6968C185 16.879 183.21 15.5806 180.823 15.5806Z" fill="#C18205"/>
<path d="M181.121 120.49C183.508 118.932 185 116.595 185 113.998V55.0516V32.2V18.6968C185 16.879 183.21 15.5806 180.823 15.5806H107.121C104.734 15.5806 102.645 15.5806 100.258 18.6968L96.379 23.371H9.25C4.47581 23.371 0.596774 26.7468 0 30.6419L181.121 120.49Z" fill="#AA6E04"/>
<path d="M6.26613 33.7581L181.121 119.971C183.508 118.413 185 116.595 185 113.998V55.0516V40.5097L173.661 33.7581H6.26613Z" fill="#915A02"/>
<path d="M170.081 33.7581H14.9194V132.435H170.081V33.7581Z" fill="white"/>
<path d="M170.081 33.7581H95.4839V132.435H170.081V33.7581Z" fill="#EFEFEF"/>
<path d="M146.21 67.5161H38.7903C36.4032 67.5161 34.3145 65.6984 34.3145 63.621C34.3145 61.5435 36.4032 59.7258 38.7903 59.7258H146.21C148.597 59.7258 150.685 61.5435 150.685 63.621C150.685 65.6984 148.597 67.5161 146.21 67.5161Z" fill="#EFEFEF"/>
<path d="M146.21 88.2903H38.7903C36.4032 88.2903 34.3145 86.4726 34.3145 84.3952C34.3145 82.3177 36.4032 80.5 38.7903 80.5H146.21C148.597 80.5 150.685 82.3177 150.685 84.3952C150.685 86.4726 148.597 88.2903 146.21 88.2903Z" fill="#EFEFEF"/>
<path d="M146.21 62.3226H38.7903C36.4032 62.3226 34.3145 60.5048 34.3145 58.4274C34.3145 56.35 36.4032 54.5323 38.7903 54.5323H146.21C148.597 54.5323 150.685 56.35 150.685 58.4274C150.685 60.5048 148.597 62.3226 146.21 62.3226Z" fill="#B1BAB9"/>
<path d="M146.21 83.0968H38.7903C36.4032 83.0968 34.3145 81.279 34.3145 79.2016C34.3145 77.1242 36.4032 75.3065 38.7903 75.3065H146.21C148.597 75.3065 150.685 77.1242 150.685 79.2016C150.685 81.279 148.597 83.0968 146.21 83.0968Z" fill="#B1BAB9"/>
<path d="M185 137.629C185 142.044 180.823 145.419 175.75 145.419H9.25C4.17742 145.419 0 142.044 0 137.629L2.98387 106.468C2.98387 102.053 7.16129 98.6774 12.2339 98.6774H173.065C178.137 98.6774 182.315 102.053 182.315 106.468L185 137.629Z" fill="#FFB000"/>
<path d="M177.839 145.16C178.137 145.16 178.435 144.9 179.032 144.9C179.331 144.9 179.331 144.9 179.629 144.64C179.927 144.64 180.226 144.381 180.524 144.121C180.823 143.861 180.823 143.861 181.121 143.861L181.718 143.342C182.613 142.823 182.911 142.563 183.508 141.524L95.4839 98.6774H12.2339C7.16129 98.6774 2.98387 102.053 2.98387 106.468L0 137.629C0 142.044 4.17742 145.419 9.25 145.419H175.75C176.347 145.419 176.645 145.419 177.242 145.419L177.839 145.16Z" fill="#FFC200"/>
</g>
<defs>
<clipPath id="clip0_8_165">
<rect width="185" height="161" fill="white"/>
</clipPath>
</defs>
</svg>
