<svg width="205" height="189" viewBox="0 0 205 189" fill="none" xmlns="http://www.w3.org/2000/svg">
<path d="M201.863 65.0968H3.13788V161.525H201.863V65.0968Z" fill="#4B92B9"/>
<path d="M26.1479 76.6683H15.6889V86.311H26.1479V76.6683Z" fill="#CAF9F4"/>
<path d="M46.543 76.6683H36.084V86.311H46.543V76.6683Z" fill="#CAF9F4"/>
<path d="M66.9385 76.6683H56.4795V86.311H66.9385V76.6683Z" fill="#CAF9F4"/>
<path d="M87.334 76.6683H76.875V86.311H87.334V76.6683Z" fill="#CAF9F4"/>
<path d="M107.73 76.6683H97.2705V86.311H107.73V76.6683Z" fill="#CAF9F4"/>
<path d="M128.125 76.6683H117.666V86.311H128.125V76.6683Z" fill="#CAF9F4"/>
<path d="M148.52 76.6683H138.061V86.311H148.52V76.6683Z" fill="#CAF9F4"/>
<path d="M168.916 76.6683H158.457V86.311H168.916V76.6683Z" fill="#CAF9F4"/>
<path d="M189.311 76.6683H178.852V86.311H189.311V76.6683Z" fill="#CAF9F4"/>
<path d="M26.1479 97.8828H15.6889V107.526H26.1479V97.8828Z" fill="#79CAE8"/>
<path d="M46.543 97.8828H36.084V107.526H46.543V97.8828Z" fill="#79CAE8"/>
<path d="M66.9385 97.8828H56.4795V107.526H66.9385V97.8828Z" fill="#79CAE8"/>
<path d="M87.334 97.8828H76.875V107.526H87.334V97.8828Z" fill="#79CAE8"/>
<path d="M107.73 97.8828H97.2705V107.526H107.73V97.8828Z" fill="#79CAE8"/>
<path d="M128.125 97.8828H117.666V107.526H128.125V97.8828Z" fill="#79CAE8"/>
<path d="M148.52 97.8828H138.061V107.526H148.52V97.8828Z" fill="#79CAE8"/>
<path d="M189.311 97.8828H158.457V107.526H189.311V97.8828Z" fill="#79CAE8"/>
<path d="M46.5434 119.097H15.6889V128.74H46.5434V119.097Z" fill="#79CAE8"/>
<path d="M66.9385 119.097H56.4795V128.74H66.9385V119.097Z" fill="#79CAE8"/>
<path d="M87.334 119.097H76.875V128.74H87.334V119.097Z" fill="#79CAE8"/>
<path d="M107.73 119.097H97.2705V128.74H107.73V119.097Z" fill="#79CAE8"/>
<path d="M128.125 119.097H117.666V128.74H128.125V119.097Z" fill="#79CAE8"/>
<path d="M148.52 119.097H138.061V128.74H148.52V119.097Z" fill="#79CAE8"/>
<path d="M189.311 119.097H178.852V128.74H189.311V119.097Z" fill="#79CAE8"/>
<path d="M26.1479 140.311H15.6889V149.954H26.1479V140.311Z" fill="#79CAE8"/>
<path d="M56.4795 140.311H36.084V149.954H56.4795V140.311Z" fill="#79CAE8"/>
<path d="M128.125 140.311H66.9389V149.954H128.125V140.311Z" fill="#79CAE8"/>
<path d="M168.916 119.097H158.457V128.74H168.916V119.097Z" fill="#FF503D"/>
<path d="M148.52 140.311H138.061V149.954H148.52V140.311Z" fill="#FF503D"/>
<path d="M168.916 140.311H158.457V149.954H168.916V140.311Z" fill="#FF503D"/>
<path d="M189.311 140.311H178.852V149.954H189.311V140.311Z" fill="#FF503D"/>
<path d="M0 62.2039V164.418H205V62.2039H0ZM198.725 158.632H6.27532V67.9894H198.724V158.632H198.725Z" fill="black"/>
<path d="M29.2858 73.7753H12.551V89.2039H29.2858V73.7753ZM23.01 83.418H18.8263V79.5609H23.01V83.418Z" fill="black"/>
<path d="M49.6813 73.7753H32.9465V89.2039H49.6813V73.7753ZM43.4055 83.418H39.2219V79.5609H43.4055V83.418Z" fill="black"/>
<path d="M70.0763 73.7753H53.3416V89.2039H70.0763V73.7753ZM63.801 83.418H59.6173V79.5609H63.801V83.418Z" fill="black"/>
<path d="M90.4718 73.7753H73.7371V89.2039H90.4718V73.7753ZM84.1965 83.418H80.0128V79.5609H84.1965V83.418Z" fill="black"/>
<path d="M110.867 73.7753H94.1326V89.2039H110.867V73.7753ZM104.592 83.418H100.408V79.5609H104.592V83.418Z" fill="black"/>
<path d="M131.263 73.7753H114.528V89.2039H131.263V73.7753ZM124.987 83.418H120.803V79.5609H124.987V83.418Z" fill="black"/>
<path d="M151.658 73.7753H134.924V89.2039H151.658V73.7753H151.658ZM145.383 83.418H141.199V79.5609H145.383V83.418Z" fill="black"/>
<path d="M172.053 73.7753H155.319V89.2039H172.053V73.7753ZM165.778 83.418H161.594V79.5609H165.778V83.418Z" fill="black"/>
<path d="M192.449 73.7753H175.714V89.2039H192.449V73.7753ZM186.174 83.418H181.99V79.5609H186.174V83.418Z" fill="black"/>
<path d="M29.2858 94.9895H12.551V110.418H29.2858V94.9895ZM23.01 104.632H18.8263V100.775H23.01V104.632Z" fill="black"/>
<path d="M49.6813 94.9895H32.9465V110.418H49.6813V94.9895ZM43.4055 104.632H39.2219V100.775H43.4055V104.632Z" fill="black"/>
<path d="M70.0763 94.9895H53.3416V110.418H70.0763V94.9895ZM63.801 104.632H59.6173V100.775H63.801V104.632Z" fill="black"/>
<path d="M90.4718 94.9895H73.7371V110.418H90.4718V94.9895ZM84.1965 104.632H80.0128V100.775H84.1965V104.632Z" fill="black"/>
<path d="M110.867 94.9895H94.1326V110.418H110.867V94.9895ZM104.592 104.632H100.408V100.775H104.592V104.632Z" fill="black"/>
<path d="M131.263 94.9895H114.528V110.418H131.263V94.9895ZM124.987 104.632H120.803V100.775H124.987V104.632Z" fill="black"/>
<path d="M151.658 94.9895H134.924V110.418H151.658V94.9895H151.658ZM145.383 104.632H141.199V100.775H145.383V104.632Z" fill="black"/>
<path d="M172.053 116.204H155.319V131.632H172.053V116.204ZM165.778 125.847H161.594V121.99H165.778V125.847Z" fill="black"/>
<path d="M192.449 94.9895H155.319V110.418H192.449V94.9895ZM186.174 104.632H161.594V100.775H186.174V104.632Z" fill="black"/>
<path d="M49.6813 116.204H12.551V131.632H49.6813V116.204ZM43.4055 125.847H18.8263V121.99H43.4055V125.847Z" fill="black"/>
<path d="M70.0763 116.204H53.3416V131.632H70.0763V116.204ZM63.801 125.847H59.6173V121.99H63.801V125.847Z" fill="black"/>
<path d="M90.4718 116.204H73.7371V131.632H90.4718V116.204ZM84.1965 125.847H80.0128V121.99H84.1965V125.847Z" fill="black"/>
<path d="M110.867 116.204H94.1326V131.632H110.867V116.204ZM104.592 125.847H100.408V121.99H104.592V125.847Z" fill="black"/>
<path d="M131.263 116.204H114.528V131.632H131.263V116.204ZM124.987 125.847H120.803V121.99H124.987V125.847Z" fill="black"/>
<path d="M151.658 116.204H134.924V131.632H151.658V116.204H151.658ZM145.383 125.847H141.199V121.99H145.383V125.847Z" fill="black"/>
<path d="M175.714 131.632H192.449V116.204H175.714V131.632ZM181.99 121.99H186.174V125.847H181.99V121.99Z" fill="black"/>
<path d="M29.2858 137.418H12.551V152.847H29.2858V137.418ZM23.01 147.061H18.8263V143.204H23.01V147.061Z" fill="black"/>
<path d="M32.9465 152.847H59.6173V137.418H32.9465V152.847ZM39.2219 143.204H53.3416V147.061H39.2219V143.204Z" fill="black"/>
<path d="M63.801 152.847H131.263V137.418H63.801V152.847ZM70.0763 143.204H124.987V147.061H70.0763V143.204Z" fill="black"/>
<path d="M151.658 137.418H134.924V152.847H151.658V137.418H151.658ZM145.383 147.061H141.199V143.204H145.383V147.061Z" fill="black"/>
<path d="M172.053 137.418H155.319V152.847H172.053V137.418ZM165.778 147.061H161.594V143.204H165.778V147.061Z" fill="black"/>
<path d="M175.714 152.847H192.449V137.418H175.714V152.847ZM181.99 143.204H186.174V147.061H181.99V143.204Z" fill="black"/>
<path d="M102.5 30.3677C113.514 30.3677 123.87 34.3223 131.658 41.5032L136.096 37.412C127.122 29.1389 115.19 24.5822 102.499 24.5822C89.808 24.5822 77.8768 29.1385 68.9032 37.412L73.3403 41.5032C81.1299 34.3223 91.4852 30.3677 102.5 30.3677Z" fill="black"/>
<path d="M79.978 47.6225L84.4152 51.7133C89.2455 47.26 95.6685 44.807 102.5 44.807C109.331 44.807 115.753 47.26 120.584 51.7133L125.022 47.6225C119.005 42.0758 111.007 39.0211 102.5 39.0211C93.9925 39.0211 85.9939 42.0761 79.978 47.6225Z" fill="black"/>
</svg>
