<svg width="201" height="64" viewBox="0 0 201 64" fill="none" xmlns="http://www.w3.org/2000/svg">
<g clip-path="url(#clip0_4_2)">
<path d="M47.94 52.14L42.29 42.47L36.75 52.14H30.13L38.64 37.54L29.96 24.02H36.88L42.44 33.02L47.74 24.02H54.36L45.82 38.02L54.59 52.14H47.94Z" fill="black"/>
<path d="M76.14 42.59C76.14 48.76 71.62 52.59 65.69 52.59C60.48 52.59 56.07 49.59 55.69 43.16H61.34C61.73 45.97 63.91 47.16 66.34 47.16C69.34 47.16 70.58 45.16 70.58 42.47C70.58 39.78 68.58 37.98 65.83 37.98C64.9378 37.9339 64.0494 38.1252 63.2553 38.5346C62.4612 38.9439 61.79 39.5566 61.31 40.31H55.9L57.77 24.02H75.54L74.95 29.48H62.14L61.64 34.87C61.64 34.87 62.97 33.26 67.02 33.26C71.9 33.26 76.14 36.63 76.14 42.57" fill="black"/>
<path d="M56.32 20.54C53.32 8.47001 43.76 -0.0299988 23.94 -0.0299988H0L3.25 22.58C5.69 42.98 13.25 49.58 26.69 51.96C26.7523 51.9761 26.8177 51.9761 26.88 51.96C26.9433 51.9447 27.0017 51.9137 27.05 51.87C27.0989 51.8263 27.1367 51.7714 27.16 51.71C27.1745 51.6475 27.1745 51.5825 27.16 51.52C27.1617 51.4316 27.1374 51.3446 27.09 51.27C27.0438 51.1991 26.9777 51.1435 26.9 51.11C17.83 47.18 16.8 34.29 14.9 21.36L13.4 11.05H27.06C39.66 11.05 49.38 10.85 55.54 20.85C55.5823 20.9194 55.6406 20.9777 55.71 21.02C55.7797 21.0621 55.8587 21.0861 55.94 21.09C55.9928 21.1008 56.0472 21.1008 56.1 21.09C56.1531 21.0667 56.2007 21.0327 56.24 20.99C56.2788 20.9497 56.3094 20.9021 56.33 20.85C56.341 20.7939 56.341 20.7362 56.33 20.68C56.3373 20.637 56.3373 20.593 56.33 20.55" fill="#5FAF2D"/>
<path d="M108.67 37.54C108.67 37.54 110.09 53.16 94.75 53.16C86.67 53.16 80.42 46.79 80.42 38.16C80.42 29.53 86.69 23.16 94.99 23.16C97.9675 23.0969 100.885 24.0001 103.306 25.7344C105.728 27.4686 107.522 29.9406 108.42 32.78H104.83C103.992 30.8693 102.608 29.249 100.852 28.1227C99.096 26.9964 97.046 26.4144 94.96 26.45C88.57 26.45 83.83 31.45 83.83 38.28C83.83 44.9 88.32 50.02 94.96 50.02C97.5856 50.1311 100.148 49.1948 102.083 47.417C104.018 45.6392 105.168 43.1656 105.28 40.54H94.38V37.54H108.68H108.67Z" fill="black"/>
<path d="M125.91 29.39V32.93C125.439 32.8757 124.964 32.849 124.49 32.85C119.84 32.85 116.6 35.97 116.6 41.85V52.68H113.24V29.78H116.6V34.9C117.146 33.2407 118.212 31.8016 119.641 30.7964C121.069 29.7912 122.784 29.2734 124.53 29.32C124.991 29.3187 125.452 29.3454 125.91 29.4" fill="black"/>
<path d="M150.5 41.22C150.5 48.09 145.44 53.13 139.01 53.13C132.58 53.13 127.5 48.05 127.5 41.22C127.5 34.39 132.64 29.31 138.95 29.31C140.499 29.3051 142.033 29.6125 143.46 30.2139C144.887 30.8152 146.178 31.6982 147.257 32.81C148.335 33.9218 149.178 35.2396 149.735 36.6846C150.292 38.1296 150.552 39.6721 150.5 41.22ZM130.95 41.22C130.95 46.22 134.51 49.84 139 49.84C143.49 49.84 147.08 46.26 147.08 41.22C147.08 36.18 143.48 32.6 139 32.6C134.52 32.6 130.94 36.14 130.94 41.22H130.95Z" fill="black"/>
<path d="M173.71 29.77V52.68H170.34V48.14C169.662 49.6648 168.546 50.9539 167.134 51.844C165.722 52.7341 164.078 53.1851 162.41 53.14C157.47 53.14 154.52 49.89 154.52 44.31V29.77H157.88V43.64C157.88 47.72 159.74 49.85 163.38 49.85C167.79 49.85 170.38 46.6 170.38 41.52V29.77H173.75H173.71Z" fill="black"/>
<path d="M201 41.22C201 48.13 196.63 53.13 190.56 53.13C188.803 53.1735 187.07 52.7194 185.56 51.82C184.046 50.9129 182.808 49.6093 181.98 48.05V63.05H178.62V29.77H181.98V34.47C182.805 32.8925 184.047 31.5713 185.57 30.65C187.077 29.7392 188.81 29.2713 190.57 29.3C196.57 29.3 200.97 34.3 200.97 41.21L201 41.22ZM197.61 41.22C197.61 36.22 194.45 32.6 189.96 32.6C185.47 32.6 181.96 36.18 181.96 41.22C181.96 46.26 185.4 49.84 189.96 49.84C194.52 49.84 197.61 46.26 197.61 41.22Z" fill="black"/>
</g>
<defs>
<clipPath id="clip0_4_2">
<rect width="201" height="63.09" fill="white"/>
</clipPath>
</defs>
</svg>
