<svg width="209" height="72" viewBox="0 0 209 72" fill="none" xmlns="http://www.w3.org/2000/svg">
<g clip-path="url(#clip0_4_2)" filter="url(#filter0_d_4_2)">
<path d="M51.94 52.14L46.29 42.47L40.75 52.14H34.13L42.64 37.54L33.96 24.02H40.88L46.44 33.02L51.74 24.02H58.36L49.82 38.02L58.59 52.14H51.94Z" fill="black"/>
<path d="M80.14 42.59C80.14 48.76 75.62 52.59 69.69 52.59C64.48 52.59 60.07 49.59 59.69 43.16H65.34C65.73 45.97 67.91 47.16 70.34 47.16C73.34 47.16 74.58 45.16 74.58 42.47C74.58 39.78 72.58 37.98 69.83 37.98C68.9378 37.9339 68.0494 38.1252 67.2553 38.5346C66.4612 38.9439 65.79 39.5566 65.31 40.31H59.9L61.77 24.02H79.54L78.95 29.48H66.14L65.64 34.87C65.64 34.87 66.97 33.26 71.02 33.26C75.9 33.26 80.14 36.63 80.14 42.57" fill="black"/>
<path d="M60.32 20.54C57.32 8.47001 47.76 -0.0299988 27.94 -0.0299988H4L7.25 22.58C9.69 42.98 17.25 49.58 30.69 51.96C30.7523 51.9761 30.8177 51.9761 30.88 51.96C30.9433 51.9447 31.0017 51.9137 31.05 51.87C31.0989 51.8263 31.1367 51.7714 31.16 51.71C31.1745 51.6475 31.1745 51.5825 31.16 51.52C31.1617 51.4316 31.1374 51.3446 31.09 51.27C31.0438 51.1991 30.9777 51.1435 30.9 51.11C21.83 47.18 20.8 34.29 18.9 21.36L17.4 11.05H31.06C43.66 11.05 53.38 10.85 59.54 20.85C59.5823 20.9194 59.6406 20.9777 59.71 21.02C59.7797 21.0621 59.8587 21.0861 59.94 21.09C59.9928 21.1008 60.0472 21.1008 60.1 21.09C60.1531 21.0667 60.2007 21.0327 60.24 20.99C60.2788 20.9497 60.3094 20.9021 60.33 20.85C60.341 20.7939 60.341 20.7362 60.33 20.68C60.3373 20.637 60.3373 20.593 60.33 20.55" fill="#5FAF2D"/>
<path d="M112.67 37.54C112.67 37.54 114.09 53.16 98.75 53.16C90.67 53.16 84.42 46.79 84.42 38.16C84.42 29.53 90.69 23.16 98.99 23.16C101.968 23.0969 104.885 24.0001 107.306 25.7344C109.728 27.4686 111.522 29.9406 112.42 32.78H108.83C107.992 30.8693 106.608 29.249 104.852 28.1227C103.096 26.9964 101.046 26.4144 98.96 26.45C92.57 26.45 87.83 31.45 87.83 38.28C87.83 44.9 92.32 50.02 98.96 50.02C101.586 50.1311 104.148 49.1948 106.083 47.417C108.018 45.6392 109.168 43.1656 109.28 40.54H98.38V37.54H112.68H112.67Z" fill="black"/>
<path d="M129.91 29.39V32.93C129.439 32.8757 128.964 32.849 128.49 32.85C123.84 32.85 120.6 35.97 120.6 41.85V52.68H117.24V29.78H120.6V34.9C121.146 33.2407 122.212 31.8016 123.641 30.7964C125.069 29.7912 126.784 29.2734 128.53 29.32C128.991 29.3187 129.452 29.3454 129.91 29.4" fill="black"/>
<path d="M154.5 41.22C154.5 48.09 149.44 53.13 143.01 53.13C136.58 53.13 131.5 48.05 131.5 41.22C131.5 34.39 136.64 29.31 142.95 29.31C144.499 29.3051 146.033 29.6125 147.46 30.2139C148.887 30.8152 150.178 31.6982 151.257 32.81C152.335 33.9218 153.178 35.2396 153.735 36.6846C154.292 38.1296 154.552 39.6721 154.5 41.22ZM134.95 41.22C134.95 46.22 138.51 49.84 143 49.84C147.49 49.84 151.08 46.26 151.08 41.22C151.08 36.18 147.48 32.6 143 32.6C138.52 32.6 134.94 36.14 134.94 41.22H134.95Z" fill="black"/>
<path d="M177.71 29.77V52.68H174.34V48.14C173.662 49.6648 172.546 50.9539 171.134 51.844C169.722 52.7341 168.078 53.1851 166.41 53.14C161.47 53.14 158.52 49.89 158.52 44.31V29.77H161.88V43.64C161.88 47.72 163.74 49.85 167.38 49.85C171.79 49.85 174.38 46.6 174.38 41.52V29.77H177.75H177.71Z" fill="black"/>
<path d="M205 41.22C205 48.13 200.63 53.13 194.56 53.13C192.803 53.1735 191.07 52.7194 189.56 51.82C188.046 50.9129 186.808 49.6093 185.98 48.05V63.05H182.62V29.77H185.98V34.47C186.805 32.8925 188.047 31.5713 189.57 30.65C191.077 29.7392 192.81 29.2713 194.57 29.3C200.57 29.3 204.97 34.3 204.97 41.21L205 41.22ZM201.61 41.22C201.61 36.22 198.45 32.6 193.96 32.6C189.47 32.6 185.96 36.18 185.96 41.22C185.96 46.26 189.4 49.84 193.96 49.84C198.52 49.84 201.61 46.26 201.61 41.22Z" fill="black"/>
</g>
<defs>
<filter id="filter0_d_4_2" x="0" y="0" width="209" height="71.09" filterUnits="userSpaceOnUse" color-interpolation-filters="sRGB">
<feFlood flood-opacity="0" result="BackgroundImageFix"/>
<feColorMatrix in="SourceAlpha" type="matrix" values="0 0 0 0 0 0 0 0 0 0 0 0 0 0 0 0 0 0 127 0" result="hardAlpha"/>
<feOffset dy="4"/>
<feGaussianBlur stdDeviation="2"/>
<feComposite in2="hardAlpha" operator="out"/>
<feColorMatrix type="matrix" values="0 0 0 0 0 0 0 0 0 0 0 0 0 0 0 0 0 0 0.25 0"/>
<feBlend mode="normal" in2="BackgroundImageFix" result="effect1_dropShadow_4_2"/>
<feBlend mode="normal" in="SourceGraphic" in2="effect1_dropShadow_4_2" result="shape"/>
</filter>
<clipPath id="clip0_4_2">
<rect width="201" height="63.09" fill="white" transform="translate(4)"/>
</clipPath>
</defs>
</svg>
