<svg width="182" height="140" viewBox="0 0 182 140" fill="none" xmlns="http://www.w3.org/2000/svg">
<path d="M150 32.3091H91V76.9215H162V41.5398C162 36.4629 156.6 32.3091 150 32.3091Z" fill="#4D4D4D"/>
<path d="M32 32.3091C25.4 32.3091 20.0001 36.4629 20.0001 41.5398V76.9212H91V32.3091H32Z" fill="#737373"/>
<path d="M142 0.00428772V76.9214H102L130 0.00428772H142Z" fill="#DCDCDC"/>
<path d="M130 0.00180054H39.9998V76.9187H130V0.00180054Z" fill="#EEEEEE"/>
<path d="M166 64.6138H154V101.537L182 89.2289V76.9213C182 70.152 174.8 64.6138 166 64.6138Z" fill="#02ACAB"/>
<path d="M170 76.9215V110.768L0 89.2289V76.9213C0 70.152 7.20002 64.6136 16 64.6136H154C162.8 64.6138 170 70.152 170 76.9215Z" fill="#42C8C6"/>
<path d="M182 89.2289V139.998H170L162 114.614L170 89.2289H182Z" fill="#B9B9B9"/>
<path d="M170 89.2289V139.998H154L91 116.921L27.9999 139.998H0V89.2289H170Z" fill="#DCDCDC"/>
<path d="M154 107.691V116.921L130 127.909L142 107.691H154Z" fill="#4D4D4D"/>
<path d="M142 107.691V116.921L85 126.152L27.9999 116.921V107.691H142Z" fill="#737373"/>
<path d="M154 116.921V139.998H142L130 128.46L142 116.921H154Z" fill="#737373"/>
<path d="M142 116.921H27.9999V139.998H142V116.921Z" fill="#969696"/>
<path d="M116 22.3089H65.9999C64.343 22.3089 62.9997 21.2759 62.9997 20.0011C62.9997 18.7264 64.343 17.6933 65.9999 17.6933H116C117.657 17.6933 119 18.7264 119 20.0011C119 21.2762 117.657 22.3089 116 22.3089Z" fill="#4D4D4D"/>
<path d="M116 34.6166H65.9999C64.343 34.6166 62.9997 33.5836 62.9997 32.3088C62.9997 31.0341 64.343 30.001 65.9999 30.001H116C117.657 30.001 119 31.0341 119 32.3088C119 33.5836 117.657 34.6166 116 34.6166Z" fill="#4D4D4D"/>
<path d="M96.8674 46.9243H65.9999C64.343 46.9243 62.9997 45.8913 62.9997 44.6165C62.9997 43.3418 64.343 42.3087 65.9999 42.3087H96.867C98.5242 42.3087 99.8672 43.3418 99.8672 44.6165C99.8672 45.8913 98.5246 46.9243 96.8674 46.9243Z" fill="#4D4D4D"/>
<path d="M158 79.2291H154C152.343 79.2291 151 78.196 151 76.9212C151 75.6465 152.343 74.6134 154 74.6134H158C159.657 74.6134 161 75.6465 161 76.9212C161 78.196 159.657 79.2291 158 79.2291Z" fill="white"/>
</svg>
